<?xml version="1.0" encoding="UTF-8"?>
<svg xmlns="http://www.w3.org/2000/svg" xmlns:xlink="http://www.w3.org/1999/xlink" width="300" height="300" viewBox="0 0 300 300">
  <defs>
    <clipPath id="clip-banche">
      <rect width="300" height="300"></rect>
    </clipPath>
  </defs>
  <g id="banche" clip-path="url(#clip-banche)">
    <g id="Banche-2" data-name="Banche" transform="translate(0.006 2.801)">
      <ellipse id="Ellisse_210" data-name="Ellisse 210" cx="149.539" cy="6.85" rx="149.539" ry="6.85" transform="translate(-0.001 241.396)" fill="#efefef"></ellipse>
      <g id="Raggruppa_3050" data-name="Raggruppa 3050" transform="translate(226.738 135.368)">
        <path id="Tracciato_4802" data-name="Tracciato 4802" d="M301.431,181.392s5.133-.842,4.4,5.242,10.641,11.016,6.792,17.166-13.025,15.333-8.075,20.85,7.033,12.633,2.875,15.991-8.2,1.383-5.992,8.167-5.5,13.425-12.016,13.708-11.283,1.592-16.05-1.817,4.767-58.882,13.391-61.949,8.258-11.125,10.458-13.808a12.681,12.681,0,0,1,4.217-3.55Z" transform="translate(-272.092 -159.063)" fill="#69b76e"></path>
        <path id="Tracciato_4803" data-name="Tracciato 4803" d="M286.64,257.182s3.392-48,16.533-52.032,4.575-24.816,14.133-25.633,8.242-25.566,13.191-24.9,10.883,25.141,4.617,32.358,10.025,15.583,2.7,25.908-9.3,11.508-4.35,21.8S287.79,268.44,283.948,266.74s2.692-9.55,2.692-9.55Z" transform="translate(-273.866 -154.604)" fill="#007544"></path>
        <g id="Raggruppa_3049" data-name="Raggruppa 3049" transform="translate(12.558 77.541)">
          <path id="Tracciato_4804" data-name="Tracciato 4804" d="M287.76,283.579s9.283-27.216,16.208-25.8,4.992,11.025,1.158,15.758-17.358,10.05-17.358,10.05Z" transform="translate(-287.262 -249.333)" fill="#5a9d5f"></path>
          <path id="Tracciato_4805" data-name="Tracciato 4805" d="M287.66,284.925a.506.506,0,0,1-.375-.167.492.492,0,0,1,.05-.7,103.913,103.913,0,0,0,9.083-9.158,32.019,32.019,0,0,0,5.983-11.675.494.494,0,1,1,.958.242,32.4,32.4,0,0,1-6.192,12.091,104.842,104.842,0,0,1-9.183,9.258.482.482,0,0,1-.325.125Z" transform="translate(-287.162 -250.188)" fill="#467d4b"></path>
          <path id="Tracciato_4806" data-name="Tracciato 4806" d="M304.41,272.692a22.7,22.7,0,0,0,12.641-12.6c4.125-9.841,11.542-16.241,19.783-9.908,0,0,4.45,4.408,1.817,9.991s-11.708,17.125-28.858,20.258-21.633.508-21.633.508l16.25-8.242Z" transform="translate(-287.328 -247.655)" fill="#69b76e"></path>
          <path id="Tracciato_4807" data-name="Tracciato 4807" d="M288.072,283.015a.491.491,0,0,1-.483-.4.505.505,0,0,1,.392-.583l2.308-.45c7.566-1.467,15.391-2.992,22.3-6.608,6.283-3.292,11.516-8.708,16.983-17.55a.5.5,0,0,1,.683-.158.49.49,0,0,1,.158.683c-3.75,6.058-9.108,13.575-17.366,17.9-7.033,3.692-14.933,5.225-22.566,6.708l-2.3.45s-.067.008-.1.008Z" transform="translate(-287.232 -249.244)" fill="#518f56"></path>
        </g>
      </g>
      <g id="Raggruppa_3051" data-name="Raggruppa 3051" transform="translate(-0.006 138.02)">
        <path id="Tracciato_4808" data-name="Tracciato 4808" d="M52.577,224.3s.775-14.908-7.15-16.466-3.908-13.75-7.667-18.033-14.683-6.525-11.866-.183,4.575,19-.267,21.116,6.15,9.742,9.4,12.408,6.3,8.858,1.758,12.641,8.983,15.55,20.991,15.083S52.577,224.3,52.577,224.3Z" transform="translate(-4.064 -162.435)" fill="#007544"></path>
        <path id="Tracciato_4809" data-name="Tracciato 4809" d="M43.773,239.456s-2.3-20.025-13.05-20.316-8.183-17.433-14.066-22.291-20.725-5.367-15.608,2.433,10.233,24.275,4.35,28.191,10.233,11.591,15.091,14.408,10.233,10.375,5.117,16.441,15.241,18.683,30.9,15.35-12.733-34.216-12.733-34.216Z" transform="translate(0.006 -163.704)" fill="#5a9d5f"></path>
        <path id="Tracciato_4810" data-name="Tracciato 4810" d="M52.171,157.839s-5.375-1.142-4.608,7.117-11.125,14.958-7.1,23.316S54.088,209.1,48.9,216.58,41.546,233.73,45.9,238.3s8.575,1.883,6.267,11.091S57.921,267.612,64.729,268s11.8,2.158,16.791-2.467-4.992-79.957-14.008-84.124-8.633-15.1-10.933-18.75a14.4,14.4,0,0,0-4.417-4.825Z" transform="translate(-6.6 -157.786)" fill="#69b76e"></path>
      </g>
      <path id="Tracciato_4811" data-name="Tracciato 4811" d="M314.913,211.252a1.992,1.992,0,1,1-1.992-1.992A1.992,1.992,0,0,1,314.913,211.252Z" transform="translate(-51.827 -28.346)" fill="#fff"></path>
      <path id="Tracciato_4812" data-name="Tracciato 4812" d="M48.233,231.642a1.542,1.542,0,1,1-1.542-1.542A1.543,1.543,0,0,1,48.233,231.642Z" transform="translate(-7.527 -31.819)" fill="#fff"></path>
      <path id="Tracciato_4813" data-name="Tracciato 4813" d="M322.63,284.97a3.1,3.1,0,1,1-3.1-3.1A3.1,3.1,0,0,1,322.63,284.97Z" transform="translate(-52.744 -40.449)" fill="#fff"></path>
      <circle id="Ellisse_211" data-name="Ellisse 211" cx="0.967" cy="0.967" r="0.967" transform="translate(44.523 161.256)" fill="#fff"></circle>
      <path id="Tracciato_4814" data-name="Tracciato 4814" d="M32.037,271.673a2.083,2.083,0,1,1-2.083-2.083A2.084,2.084,0,0,1,32.037,271.673Z" transform="translate(-4.646 -38.402)" fill="#fff"></path>
      <path id="Tracciato_4815" data-name="Tracciato 4815" d="M319.747,243.173a.983.983,0,1,1-.983-.983A.985.985,0,0,1,319.747,243.173Z" transform="translate(-52.969 -33.835)" fill="#fff"></path>
      <path id="Tracciato_4816" data-name="Tracciato 4816" d="M30.063,244.147a.767.767,0,1,1-.767-.767A.765.765,0,0,1,30.063,244.147Z" transform="translate(-4.756 -34.033)" fill="#fff"></path>
      <g id="Raggruppa_3061" data-name="Raggruppa 3061" transform="translate(34.273 61.116)">
        <rect id="Rettangolo_2191" data-name="Rettangolo 2191" width="227.813" height="16.375" rx="1" transform="translate(8.308 170.48)" fill="#b7b7b7"></rect>
        <path id="Tracciato_4817" data-name="Tracciato 4817" d="M274.038,122.02H60.733a.884.884,0,0,0-.883.883v13.125a4.914,4.914,0,0,0,3.275,4.633l1.633.575a7.215,7.215,0,0,1,4.8,6.8.884.884,0,0,0,.883.883h193.9a.884.884,0,0,0,.883-.883,7.21,7.21,0,0,1,4.8-6.8l1.633-.575a4.925,4.925,0,0,0,3.275-4.633V122.9a.884.884,0,0,0-.883-.883Z" transform="translate(-44.25 -74.921)" fill="#b7b7b7"></path>
        <g id="Raggruppa_3060" data-name="Raggruppa 3060" transform="translate(37.833 77.732)">
          <g id="Raggruppa_3053" data-name="Raggruppa 3053">
            <path id="Tracciato_4818" data-name="Tracciato 4818" d="M112.688,158.78H88.638L86.53,251.528H114.8Z" transform="translate(-86.53 -158.78)" fill="#b7b7b7"></path>
            <g id="Raggruppa_3052" data-name="Raggruppa 3052" transform="translate(2.925 5.217)">
              <path id="Tracciato_4819" data-name="Tracciato 4819" d="M93.032,165.04h0a2.555,2.555,0,0,0-2.558,2.542l-.433,84.99h5.975l-.433-84.99a2.55,2.55,0,0,0-2.558-2.542Z" transform="translate(-90.04 -165.04)" fill="#a3a3a3"></path>
              <path id="Tracciato_4820" data-name="Tracciato 4820" d="M102.892,165.04h0a2.555,2.555,0,0,0-2.558,2.542l-.433,84.99h5.975l-.433-84.99a2.55,2.55,0,0,0-2.558-2.542Z" transform="translate(-91.683 -165.04)" fill="#a3a3a3"></path>
              <path id="Tracciato_4821" data-name="Tracciato 4821" d="M112.752,165.04h0a2.555,2.555,0,0,0-2.558,2.542l-.433,84.99h5.975l-.433-84.99a2.55,2.55,0,0,0-2.558-2.542Z" transform="translate(-93.327 -165.04)" fill="#a3a3a3"></path>
            </g>
          </g>
          <g id="Raggruppa_3055" data-name="Raggruppa 3055" transform="translate(46.833)">
            <path id="Tracciato_4822" data-name="Tracciato 4822" d="M168.888,158.78H144.83l-2.1,92.748H171Z" transform="translate(-142.73 -158.78)" fill="#b7b7b7"></path>
            <g id="Raggruppa_3054" data-name="Raggruppa 3054" transform="translate(2.925 5.217)">
              <path id="Tracciato_4823" data-name="Tracciato 4823" d="M149.232,165.04h0a2.555,2.555,0,0,0-2.558,2.542l-.433,84.99h5.975l-.433-84.99a2.55,2.55,0,0,0-2.558-2.542Z" transform="translate(-146.24 -165.04)" fill="#a3a3a3"></path>
              <path id="Tracciato_4824" data-name="Tracciato 4824" d="M159.092,165.04h0a2.555,2.555,0,0,0-2.558,2.542l-.433,84.99h5.975l-.433-84.99a2.55,2.55,0,0,0-2.558-2.542Z" transform="translate(-147.883 -165.04)" fill="#a3a3a3"></path>
              <path id="Tracciato_4825" data-name="Tracciato 4825" d="M168.952,165.04h0a2.555,2.555,0,0,0-2.558,2.542l-.433,84.99h5.975l-.433-84.99a2.55,2.55,0,0,0-2.558-2.542Z" transform="translate(-149.527 -165.04)" fill="#a3a3a3"></path>
            </g>
          </g>
          <g id="Raggruppa_3057" data-name="Raggruppa 3057" transform="translate(93.657)">
            <path id="Tracciato_4826" data-name="Tracciato 4826" d="M225.086,158.78H201.028l-2.108,92.748h28.275Z" transform="translate(-198.92 -158.78)" fill="#b7b7b7"></path>
            <g id="Raggruppa_3056" data-name="Raggruppa 3056" transform="translate(2.933 5.217)">
              <path id="Tracciato_4827" data-name="Tracciato 4827" d="M205.432,165.04h0a2.555,2.555,0,0,0-2.558,2.542l-.433,84.99h5.975l-.433-84.99a2.55,2.55,0,0,0-2.558-2.542Z" transform="translate(-202.44 -165.04)" fill="#a3a3a3"></path>
              <path id="Tracciato_4828" data-name="Tracciato 4828" d="M215.292,165.04h0a2.555,2.555,0,0,0-2.558,2.542l-.433,84.99h5.975l-.433-84.99a2.55,2.55,0,0,0-2.558-2.542Z" transform="translate(-204.083 -165.04)" fill="#a3a3a3"></path>
              <path id="Tracciato_4829" data-name="Tracciato 4829" d="M225.152,165.04h0a2.555,2.555,0,0,0-2.558,2.542l-.433,84.99h5.975l-.433-84.99a2.55,2.55,0,0,0-2.558-2.542Z" transform="translate(-205.727 -165.04)" fill="#a3a3a3"></path>
            </g>
          </g>
          <g id="Raggruppa_3059" data-name="Raggruppa 3059" transform="translate(140.489)">
            <path id="Tracciato_4830" data-name="Tracciato 4830" d="M281.286,158.78H257.228l-2.108,92.748h28.275Z" transform="translate(-255.12 -158.78)" fill="#b7b7b7"></path>
            <g id="Raggruppa_3058" data-name="Raggruppa 3058" transform="translate(2.933 5.217)">
              <path id="Tracciato_4831" data-name="Tracciato 4831" d="M261.632,165.04h0a2.555,2.555,0,0,0-2.558,2.542l-.433,84.99h5.975l-.433-84.99a2.55,2.55,0,0,0-2.558-2.542Z" transform="translate(-258.64 -165.04)" fill="#a3a3a3"></path>
              <path id="Tracciato_4832" data-name="Tracciato 4832" d="M271.492,165.04h0a2.555,2.555,0,0,0-2.558,2.542l-.433,84.99h5.975l-.433-84.99a2.55,2.55,0,0,0-2.558-2.542Z" transform="translate(-260.283 -165.04)" fill="#a3a3a3"></path>
              <path id="Tracciato_4833" data-name="Tracciato 4833" d="M281.352,165.04h0a2.555,2.555,0,0,0-2.558,2.542l-.433,84.99h5.975l-.433-84.99a2.55,2.55,0,0,0-2.558-2.542Z" transform="translate(-261.927 -165.04)" fill="#a3a3a3"></path>
            </g>
          </g>
        </g>
        <rect id="Rettangolo_2192" data-name="Rettangolo 2192" width="244.429" height="3.725" rx="1" transform="translate(0 185.097)" fill="#a3a3a3"></rect>
        <rect id="Rettangolo_2193" data-name="Rettangolo 2193" width="198.913" height="3.725" rx="1" transform="translate(23.566 73.999)" fill="#a3a3a3"></rect>
        <path id="Tracciato_4834" data-name="Tracciato 4834" d="M246.021,112.6H103.49l71.265-47.1h0Z" transform="translate(-51.524 -65.5)" fill="#a3a3a3"></path>
      </g>
      <circle id="Ellisse_212" data-name="Ellisse 212" cx="24.266" cy="24.266" r="24.266" transform="translate(132.222 79.924)" fill="#fff"></circle>
      <path id="Tracciato_4835" data-name="Tracciato 4835" d="M186.656,130.376a12.677,12.677,0,0,1-8.75-3.333,14.61,14.61,0,0,1-4.35-7.392l-2.983.358-.442-3.65,2.667-.308v-.025c-.05-.492-.083-.967-.117-1.425l-2.708.317-.433-3.65,3.2-.375a15.065,15.065,0,0,1,3-8.167,12.852,12.852,0,0,1,9.183-5.208,15.975,15.975,0,0,1,1.775-.108,13.7,13.7,0,0,1,4.983.908l.508.2-.817,4.533-.767-.325a10.7,10.7,0,0,0-5.05-.65,7.747,7.747,0,0,0-5.467,3.008,10.435,10.435,0,0,0-1.842,5.15l12.875-1.517.433,3.642-13.516,1.592c.025.425.067.875.125,1.308a.917.917,0,0,0,.017.15l13.55-1.617.442,3.658L179.056,119a9.9,9.9,0,0,0,2.867,4.742,8.176,8.176,0,0,0,6.4,1.783,11.029,11.029,0,0,0,5.183-2.075l.7-.55,1.65,4.158-.358.308a13.7,13.7,0,0,1-7.092,2.892,15.768,15.768,0,0,1-1.758.1Z" transform="translate(-28.26 -9.703)" fill="#69b76e"></path>
      <g id="Raggruppa_3062" data-name="Raggruppa 3062" transform="translate(182.896 39.2)">
        <path id="Tracciato_4836" data-name="Tracciato 4836" d="M260.244,64.316H235.828A12.561,12.561,0,0,1,223.27,51.758h0A12.561,12.561,0,0,1,235.828,39.2h24.416A12.561,12.561,0,0,1,272.8,51.758h0A12.561,12.561,0,0,1,260.244,64.316Z" transform="translate(-220.112 -39.2)" fill="#69b76e"></path>
        <path id="Tracciato_4837" data-name="Tracciato 4837" d="M250.16,53.8a2.367,2.367,0,1,0,2.367-2.367A2.365,2.365,0,0,0,250.16,53.8Z" transform="translate(-224.594 -41.239)" fill="#fff"></path>
        <path id="Tracciato_4838" data-name="Tracciato 4838" d="M235.49,53.8a2.367,2.367,0,1,0,2.367-2.367A2.365,2.365,0,0,0,235.49,53.8Z" transform="translate(-222.149 -41.239)" fill="#fff"></path>
        <path id="Tracciato_4839" data-name="Tracciato 4839" d="M269.553,53.8a2.367,2.367,0,1,1-2.367-2.367A2.365,2.365,0,0,1,269.553,53.8Z" transform="translate(-227.037 -41.239)" fill="#fff"></path>
        <path id="Tracciato_4840" data-name="Tracciato 4840" d="M234.155,64.812,219.48,70.2l5.392-14.683Z" transform="translate(-219.48 -41.92)" fill="#69b76e"></path>
      </g>
      <g id="Raggruppa_3063" data-name="Raggruppa 3063" transform="translate(38.648 65.858)">
        <circle id="Ellisse_213" data-name="Ellisse 213" cx="12.133" cy="12.133" r="12.133" fill="#f7a827"></circle>
        <circle id="Ellisse_214" data-name="Ellisse 214" cx="12.133" cy="12.133" r="12.133" transform="translate(2.242)" fill="#f37324"></circle>
        <path id="Tracciato_4841" data-name="Tracciato 4841" d="M62.522,91.021a5.082,5.082,0,0,1-3.5-1.333A5.9,5.9,0,0,1,57.28,86.73l-1.192.142-.175-1.458,1.067-.125V85.28c-.025-.2-.033-.392-.042-.575l-1.083.125-.175-1.458,1.283-.15a5.985,5.985,0,0,1,1.2-3.267,5.146,5.146,0,0,1,3.675-2.083,6.731,6.731,0,0,1,.708-.042,5.665,5.665,0,0,1,1.992.358l.2.075-.325,1.817-.308-.125a4.233,4.233,0,0,0-2.017-.258A3.1,3.1,0,0,0,59.9,80.9a4.187,4.187,0,0,0-.733,2.058l5.15-.608L64.5,83.8l-5.408.633q.012.262.05.525v.058l5.417-.642.175,1.458-5.242.617a3.925,3.925,0,0,0,1.15,1.9,3.247,3.247,0,0,0,2.558.717,4.427,4.427,0,0,0,2.075-.833l.275-.217.658,1.667-.142.125a5.521,5.521,0,0,1-2.833,1.158,6.7,6.7,0,0,1-.7.042Z" transform="translate(-47.93 -72.297)" fill="#fff"></path>
      </g>
      <g id="Raggruppa_3064" data-name="Raggruppa 3064" transform="translate(22.04 90.124)">
        <path id="Tracciato_5647" data-name="Tracciato 5647" d="M8.367,0A8.367,8.367,0,1,1,0,8.367,8.367,8.367,0,0,1,8.367,0Z" fill="#f7a827"></path>
        <path id="Tracciato_5648" data-name="Tracciato 5648" d="M8.367,0A8.367,8.367,0,1,1,0,8.367,8.367,8.367,0,0,1,8.367,0Z" transform="translate(1.45 0.525)" fill="#f37324"></path>
        <path id="Tracciato_4842" data-name="Tracciato 4842" d="M35.9,114.412a3.491,3.491,0,0,1-1.95-1.683,4.016,4.016,0,0,1-.433-2.325l-.808-.192.233-.983.717.167h0c.033-.133.067-.258.108-.383l-.733-.175.233-.992.867.208a4.131,4.131,0,0,1,1.55-1.833,3.527,3.527,0,0,1,2.867-.483,3.422,3.422,0,0,1,.475.142,4.107,4.107,0,0,1,1.208.7l.108.1-.642,1.1-.167-.158a2.926,2.926,0,0,0-1.25-.642,2.111,2.111,0,0,0-1.7.267,2.831,2.831,0,0,0-.958,1.158l3.475.817-.233.983-3.65-.858c-.033.117-.067.233-.092.35a.075.075,0,0,1-.008.042l3.658.858-.233.992L35,110.754a2.766,2.766,0,0,0,.3,1.5,2.258,2.258,0,0,0,1.492,1.067,3.069,3.069,0,0,0,1.542-.05l.233-.075.033,1.233-.125.05a3.727,3.727,0,0,1-2.108.083,3.013,3.013,0,0,1-.467-.142Z" transform="translate(-27.493 -101.196)" fill="#fff"></path>
      </g>
      <g id="Raggruppa_3065" data-name="Raggruppa 3065" transform="translate(21.065 56.866)">
        <circle id="Ellisse_217" data-name="Ellisse 217" cx="6.325" cy="6.325" r="6.325" fill="#f7a827"></circle>
        <path id="Tracciato_5649" data-name="Tracciato 5649" d="M6.325,0A6.325,6.325,0,1,1,0,6.325,6.325,6.325,0,0,1,6.325,0Z" transform="translate(1.167)" fill="#f37324"></path>
        <path id="Tracciato_4843" data-name="Tracciato 4843" d="M33.695,70.738a2.668,2.668,0,0,1-1.825-.692,3.054,3.054,0,0,1-.908-1.542l-.625.075-.092-.758.558-.067h0l-.025-.3-.567.067-.092-.758.667-.075a3.067,3.067,0,0,1,.625-1.7A2.673,2.673,0,0,1,33.328,63.9a2.865,2.865,0,0,1,1.408.167l.108.042-.167.942-.158-.067a2.18,2.18,0,0,0-1.05-.133,1.622,1.622,0,0,0-1.142.625,2.165,2.165,0,0,0-.383,1.075l2.683-.317L34.72,67,31.9,67.33c0,.092.017.183.025.275v.033l2.825-.333.092.758-2.733.325a2.05,2.05,0,0,0,.6.992,1.72,1.72,0,0,0,1.333.375,2.309,2.309,0,0,0,1.083-.433l.142-.117.342.867-.075.067a2.846,2.846,0,0,1-1.475.6,2.807,2.807,0,0,1-.367.025Z" transform="translate(-26.087 -60.98)" fill="#fff"></path>
      </g>
      <g id="Raggruppa_3066" data-name="Raggruppa 3066" transform="translate(273.486 104.191)">
        <circle id="Ellisse_219" data-name="Ellisse 219" cx="12.133" cy="12.133" r="12.133" fill="#f7a827"></circle>
        <circle id="Ellisse_220" data-name="Ellisse 220" cx="12.133" cy="12.133" r="12.133" transform="translate(2.242)" fill="#ed7327"></circle>
        <path id="Tracciato_4844" data-name="Tracciato 4844" d="M344.342,137.011a5.082,5.082,0,0,1-3.5-1.333,5.9,5.9,0,0,1-1.742-2.958l-1.192.142-.175-1.458,1.067-.125v-.008c-.025-.2-.033-.392-.042-.575l-1.083.125-.175-1.458,1.283-.15a5.985,5.985,0,0,1,1.2-3.267,5.146,5.146,0,0,1,3.675-2.083,6.73,6.73,0,0,1,.708-.042,5.665,5.665,0,0,1,1.992.358l.2.075-.325,1.817-.308-.125a4.234,4.234,0,0,0-2.017-.258,3.1,3.1,0,0,0-2.183,1.2,4.187,4.187,0,0,0-.733,2.058l5.15-.608.175,1.458-5.408.633q.012.263.05.525v.058l5.417-.642.175,1.458-5.242.617a3.925,3.925,0,0,0,1.15,1.9,3.247,3.247,0,0,0,2.558.717,4.427,4.427,0,0,0,2.075-.833l.275-.217.658,1.667-.142.125a5.522,5.522,0,0,1-2.833,1.158,6.707,6.707,0,0,1-.7.042Z" transform="translate(-329.742 -118.295)" fill="#fff"></path>
      </g>
      <g id="Raggruppa_3067" data-name="Raggruppa 3067" transform="translate(246.995 83.399)">
        <circle id="Ellisse_221" data-name="Ellisse 221" cx="8.367" cy="8.367" r="8.367" fill="#f7a827"></circle>
        <path id="Tracciato_5650" data-name="Tracciato 5650" d="M8.367,0A8.367,8.367,0,1,1,0,8.367,8.367,8.367,0,0,1,8.367,0Z" transform="translate(1.45 0.533)" fill="#ed7327"></path>
        <path id="Tracciato_4845" data-name="Tracciato 4845" d="M305.862,106.342a3.491,3.491,0,0,1-1.95-1.683,4.016,4.016,0,0,1-.433-2.325l-.808-.192.233-.983.717.167h0c.033-.133.067-.258.108-.383l-.733-.175.233-.992.867.208a4.131,4.131,0,0,1,1.55-1.833,3.527,3.527,0,0,1,2.867-.483,3.421,3.421,0,0,1,.475.142,4.107,4.107,0,0,1,1.208.7l.108.1-.642,1.1-.167-.158a2.926,2.926,0,0,0-1.25-.642,2.111,2.111,0,0,0-1.7.267,2.831,2.831,0,0,0-.958,1.158l3.475.817-.233.983-3.65-.858c-.033.117-.067.233-.092.35a.075.075,0,0,1-.008.042l3.658.858-.233.992-3.542-.833a2.766,2.766,0,0,0,.3,1.5,2.258,2.258,0,0,0,1.492,1.067,3.069,3.069,0,0,0,1.542-.05l.233-.075.033,1.233-.125.05a3.727,3.727,0,0,1-2.108.083,3.013,3.013,0,0,1-.467-.142Z" transform="translate(-297.445 -93.126)" fill="#fff"></path>
      </g>
      <g id="Raggruppa_3068" data-name="Raggruppa 3068" transform="translate(277.944 73.599)">
        <circle id="Ellisse_223" data-name="Ellisse 223" cx="6.325" cy="6.325" r="6.325" fill="#f7a827"></circle>
        <circle id="Ellisse_224" data-name="Ellisse 224" cx="6.325" cy="6.325" r="6.325" transform="translate(1.175)" fill="#ed7327"></circle>
        <path id="Tracciato_4846" data-name="Tracciato 4846" d="M341.955,90.818a2.668,2.668,0,0,1-1.825-.692,3.054,3.054,0,0,1-.908-1.542l-.625.075-.092-.758.558-.067h0l-.025-.3-.567.067-.092-.758.667-.075a3.067,3.067,0,0,1,.625-1.7,2.673,2.673,0,0,1,1.917-1.083,2.866,2.866,0,0,1,1.408.167l.108.042-.167.942-.158-.067a2.18,2.18,0,0,0-1.05-.133,1.622,1.622,0,0,0-1.142.625,2.165,2.165,0,0,0-.383,1.075l2.683-.317.092.758-2.817.333c0,.092.017.183.025.275v.033l2.825-.333.092.758-2.733.325a2.05,2.05,0,0,0,.6.992,1.72,1.72,0,0,0,1.333.375,2.31,2.31,0,0,0,1.083-.433l.142-.117.342.867-.075.067a2.846,2.846,0,0,1-1.475.6,2.807,2.807,0,0,1-.367.025Z" transform="translate(-334.347 -81.06)" fill="#fff"></path>
      </g>
    </g>
  </g>
</svg>
